<mxfile host="app.diagrams.net" agent="Mozilla/5.0 (Windows NT 10.0; Win64; x64) AppleWebKit/537.36 (KHTML, like Gecko) Chrome/135.0.0.0 Safari/537.36 Edg/135.0.0.0" version="26.2.12">
  <diagram id="R2lEEEUBdFMjLlhIrx00" name="Page-1">
    <mxGraphModel dx="2577" dy="950" grid="1" gridSize="10" guides="1" tooltips="1" connect="1" arrows="1" fold="1" page="1" pageScale="1" pageWidth="850" pageHeight="1100" math="0" shadow="0" extFonts="Permanent Marker^https://fonts.googleapis.com/css?family=Permanent+Marker">
      <root>
        <mxCell id="0" />
        <mxCell id="1" parent="0" />
        <mxCell id="R-bw1zkTwo7xKDVd_Wr5-1" value="Reports" style="rounded=0;whiteSpace=wrap;html=1;" vertex="1" parent="1">
          <mxGeometry x="130" y="120" width="110" height="42" as="geometry" />
        </mxCell>
        <mxCell id="R-bw1zkTwo7xKDVd_Wr5-2" value="ReaderID" style="ellipse;whiteSpace=wrap;html=1;" vertex="1" parent="1">
          <mxGeometry x="50" y="10" width="119" height="61" as="geometry" />
        </mxCell>
        <mxCell id="R-bw1zkTwo7xKDVd_Wr5-3" value="" style="endArrow=none;html=1;rounded=0;exitX=0.5;exitY=1;exitDx=0;exitDy=0;" edge="1" parent="1" source="R-bw1zkTwo7xKDVd_Wr5-2" target="R-bw1zkTwo7xKDVd_Wr5-1">
          <mxGeometry width="50" height="50" relative="1" as="geometry">
            <mxPoint x="400" y="190" as="sourcePoint" />
            <mxPoint x="450" y="140" as="targetPoint" />
          </mxGeometry>
        </mxCell>
        <mxCell id="R-bw1zkTwo7xKDVd_Wr5-5" value="BookID" style="ellipse;whiteSpace=wrap;html=1;" vertex="1" parent="1">
          <mxGeometry x="190" y="10" width="119" height="61" as="geometry" />
        </mxCell>
        <mxCell id="R-bw1zkTwo7xKDVd_Wr5-6" value="Fine" style="ellipse;whiteSpace=wrap;html=1;" vertex="1" parent="1">
          <mxGeometry x="-50" y="110.5" width="119" height="61" as="geometry" />
        </mxCell>
        <mxCell id="R-bw1zkTwo7xKDVd_Wr5-7" value="ReturnDate" style="ellipse;whiteSpace=wrap;html=1;" vertex="1" parent="1">
          <mxGeometry x="306" y="110.5" width="119" height="61" as="geometry" />
        </mxCell>
        <mxCell id="R-bw1zkTwo7xKDVd_Wr5-8" value="" style="endArrow=none;html=1;rounded=0;exitX=0.5;exitY=1;exitDx=0;exitDy=0;entryX=0.75;entryY=0;entryDx=0;entryDy=0;" edge="1" parent="1" source="R-bw1zkTwo7xKDVd_Wr5-5" target="R-bw1zkTwo7xKDVd_Wr5-1">
          <mxGeometry width="50" height="50" relative="1" as="geometry">
            <mxPoint x="400" y="190" as="sourcePoint" />
            <mxPoint x="450" y="140" as="targetPoint" />
          </mxGeometry>
        </mxCell>
        <mxCell id="R-bw1zkTwo7xKDVd_Wr5-9" value="" style="endArrow=none;html=1;rounded=0;exitX=1;exitY=0.5;exitDx=0;exitDy=0;" edge="1" parent="1" source="R-bw1zkTwo7xKDVd_Wr5-1" target="R-bw1zkTwo7xKDVd_Wr5-7">
          <mxGeometry width="50" height="50" relative="1" as="geometry">
            <mxPoint x="390" y="190" as="sourcePoint" />
            <mxPoint x="450" y="140" as="targetPoint" />
          </mxGeometry>
        </mxCell>
        <mxCell id="R-bw1zkTwo7xKDVd_Wr5-11" value="" style="endArrow=none;html=1;rounded=0;entryX=1;entryY=0.5;entryDx=0;entryDy=0;exitX=0;exitY=0.5;exitDx=0;exitDy=0;" edge="1" parent="1" source="R-bw1zkTwo7xKDVd_Wr5-1" target="R-bw1zkTwo7xKDVd_Wr5-6">
          <mxGeometry width="50" height="50" relative="1" as="geometry">
            <mxPoint x="400" y="190" as="sourcePoint" />
            <mxPoint x="450" y="140" as="targetPoint" />
          </mxGeometry>
        </mxCell>
        <mxCell id="R-bw1zkTwo7xKDVd_Wr5-12" value="Manages" style="rhombus;whiteSpace=wrap;html=1;" vertex="1" parent="1">
          <mxGeometry x="145" y="200" width="80" height="60" as="geometry" />
        </mxCell>
        <mxCell id="R-bw1zkTwo7xKDVd_Wr5-13" value="" style="endArrow=none;html=1;rounded=0;exitX=0.5;exitY=0;exitDx=0;exitDy=0;" edge="1" parent="1" source="R-bw1zkTwo7xKDVd_Wr5-12" target="R-bw1zkTwo7xKDVd_Wr5-1">
          <mxGeometry width="50" height="50" relative="1" as="geometry">
            <mxPoint x="400" y="190" as="sourcePoint" />
            <mxPoint x="450" y="140" as="targetPoint" />
          </mxGeometry>
        </mxCell>
        <mxCell id="R-bw1zkTwo7xKDVd_Wr5-14" value="" style="endArrow=none;html=1;rounded=0;exitX=0.5;exitY=1;exitDx=0;exitDy=0;" edge="1" parent="1" source="R-bw1zkTwo7xKDVd_Wr5-12">
          <mxGeometry width="50" height="50" relative="1" as="geometry">
            <mxPoint x="400" y="190" as="sourcePoint" />
            <mxPoint x="185" y="340" as="targetPoint" />
          </mxGeometry>
        </mxCell>
        <mxCell id="R-bw1zkTwo7xKDVd_Wr5-15" value="Librarians" style="rounded=0;whiteSpace=wrap;html=1;" vertex="1" parent="1">
          <mxGeometry x="130" y="330" width="110" height="42" as="geometry" />
        </mxCell>
        <mxCell id="R-bw1zkTwo7xKDVd_Wr5-16" value="&lt;u&gt;ReportID&lt;/u&gt;" style="ellipse;whiteSpace=wrap;html=1;" vertex="1" parent="1">
          <mxGeometry x="-50" y="199" width="119" height="61" as="geometry" />
        </mxCell>
        <mxCell id="R-bw1zkTwo7xKDVd_Wr5-17" value="" style="endArrow=none;html=1;rounded=0;entryX=0.25;entryY=1;entryDx=0;entryDy=0;" edge="1" parent="1" source="R-bw1zkTwo7xKDVd_Wr5-16" target="R-bw1zkTwo7xKDVd_Wr5-1">
          <mxGeometry width="50" height="50" relative="1" as="geometry">
            <mxPoint x="140" y="190" as="sourcePoint" />
            <mxPoint x="190" y="140" as="targetPoint" />
          </mxGeometry>
        </mxCell>
        <mxCell id="R-bw1zkTwo7xKDVd_Wr5-18" value="&lt;u&gt;LibrarianID&lt;/u&gt;" style="ellipse;whiteSpace=wrap;html=1;" vertex="1" parent="1">
          <mxGeometry x="-50" y="311" width="119" height="61" as="geometry" />
        </mxCell>
        <mxCell id="R-bw1zkTwo7xKDVd_Wr5-19" value="FullName" style="ellipse;whiteSpace=wrap;html=1;" vertex="1" parent="1">
          <mxGeometry x="-50" y="400" width="119" height="61" as="geometry" />
        </mxCell>
        <mxCell id="R-bw1zkTwo7xKDVd_Wr5-20" value="" style="endArrow=none;html=1;rounded=0;exitX=1;exitY=0.5;exitDx=0;exitDy=0;entryX=0;entryY=0.5;entryDx=0;entryDy=0;" edge="1" parent="1" source="R-bw1zkTwo7xKDVd_Wr5-18" target="R-bw1zkTwo7xKDVd_Wr5-15">
          <mxGeometry width="50" height="50" relative="1" as="geometry">
            <mxPoint x="140" y="320" as="sourcePoint" />
            <mxPoint x="190" y="270" as="targetPoint" />
          </mxGeometry>
        </mxCell>
        <mxCell id="R-bw1zkTwo7xKDVd_Wr5-21" value="" style="endArrow=none;html=1;rounded=0;exitX=1;exitY=0.5;exitDx=0;exitDy=0;entryX=0;entryY=1;entryDx=0;entryDy=0;" edge="1" parent="1" source="R-bw1zkTwo7xKDVd_Wr5-19" target="R-bw1zkTwo7xKDVd_Wr5-15">
          <mxGeometry width="50" height="50" relative="1" as="geometry">
            <mxPoint x="140" y="460" as="sourcePoint" />
            <mxPoint x="190" y="410" as="targetPoint" />
          </mxGeometry>
        </mxCell>
        <mxCell id="R-bw1zkTwo7xKDVd_Wr5-23" value="Gender" style="ellipse;whiteSpace=wrap;html=1;" vertex="1" parent="1">
          <mxGeometry x="26" y="461" width="119" height="61" as="geometry" />
        </mxCell>
        <mxCell id="R-bw1zkTwo7xKDVd_Wr5-24" value="" style="endArrow=none;html=1;rounded=0;entryX=0.25;entryY=1;entryDx=0;entryDy=0;" edge="1" parent="1" source="R-bw1zkTwo7xKDVd_Wr5-23" target="R-bw1zkTwo7xKDVd_Wr5-15">
          <mxGeometry width="50" height="50" relative="1" as="geometry">
            <mxPoint x="140" y="460" as="sourcePoint" />
            <mxPoint x="190" y="410" as="targetPoint" />
          </mxGeometry>
        </mxCell>
        <mxCell id="R-bw1zkTwo7xKDVd_Wr5-25" value="" style="endArrow=none;html=1;rounded=0;entryX=0.5;entryY=1;entryDx=0;entryDy=0;" edge="1" parent="1" target="R-bw1zkTwo7xKDVd_Wr5-15">
          <mxGeometry width="50" height="50" relative="1" as="geometry">
            <mxPoint x="185" y="550" as="sourcePoint" />
            <mxPoint x="190" y="410" as="targetPoint" />
          </mxGeometry>
        </mxCell>
        <mxCell id="R-bw1zkTwo7xKDVd_Wr5-26" value="Keeps track of" style="rhombus;whiteSpace=wrap;html=1;" vertex="1" parent="1">
          <mxGeometry x="132.5" y="550" width="105" height="60" as="geometry" />
        </mxCell>
        <mxCell id="R-bw1zkTwo7xKDVd_Wr5-29" value="" style="endArrow=none;html=1;rounded=0;entryX=0.75;entryY=1;entryDx=0;entryDy=0;" edge="1" parent="1" source="R-bw1zkTwo7xKDVd_Wr5-30" target="R-bw1zkTwo7xKDVd_Wr5-15">
          <mxGeometry width="50" height="50" relative="1" as="geometry">
            <mxPoint x="140" y="460" as="sourcePoint" />
            <mxPoint x="190" y="410" as="targetPoint" />
          </mxGeometry>
        </mxCell>
        <mxCell id="R-bw1zkTwo7xKDVd_Wr5-30" value="BirthDate" style="ellipse;whiteSpace=wrap;html=1;" vertex="1" parent="1">
          <mxGeometry x="237.5" y="450" width="119" height="61" as="geometry" />
        </mxCell>
        <mxCell id="R-bw1zkTwo7xKDVd_Wr5-31" value="" style="endArrow=none;html=1;rounded=0;exitX=1;exitY=0;exitDx=0;exitDy=0;" edge="1" parent="1" source="R-bw1zkTwo7xKDVd_Wr5-15">
          <mxGeometry width="50" height="50" relative="1" as="geometry">
            <mxPoint x="310" y="230" as="sourcePoint" />
            <mxPoint x="330" y="260" as="targetPoint" />
          </mxGeometry>
        </mxCell>
        <mxCell id="R-bw1zkTwo7xKDVd_Wr5-32" value="Role" style="ellipse;whiteSpace=wrap;html=1;" vertex="1" parent="1">
          <mxGeometry x="310" y="220" width="119" height="61" as="geometry" />
        </mxCell>
        <mxCell id="R-bw1zkTwo7xKDVd_Wr5-33" value="" style="endArrow=none;html=1;rounded=0;exitX=0.5;exitY=1;exitDx=0;exitDy=0;" edge="1" parent="1" source="R-bw1zkTwo7xKDVd_Wr5-26">
          <mxGeometry width="50" height="50" relative="1" as="geometry">
            <mxPoint x="310" y="520" as="sourcePoint" />
            <mxPoint x="185" y="700" as="targetPoint" />
          </mxGeometry>
        </mxCell>
        <mxCell id="R-bw1zkTwo7xKDVd_Wr5-34" value="Readers" style="rounded=0;whiteSpace=wrap;html=1;" vertex="1" parent="1">
          <mxGeometry x="130" y="690" width="110" height="42" as="geometry" />
        </mxCell>
        <mxCell id="R-bw1zkTwo7xKDVd_Wr5-35" value="&lt;u&gt;ReaderID&lt;/u&gt;" style="ellipse;whiteSpace=wrap;html=1;" vertex="1" parent="1">
          <mxGeometry x="-60" y="610" width="119" height="61" as="geometry" />
        </mxCell>
        <mxCell id="R-bw1zkTwo7xKDVd_Wr5-36" value="" style="endArrow=none;html=1;rounded=0;exitX=1;exitY=0.5;exitDx=0;exitDy=0;entryX=0;entryY=0.5;entryDx=0;entryDy=0;" edge="1" parent="1" source="R-bw1zkTwo7xKDVd_Wr5-35" target="R-bw1zkTwo7xKDVd_Wr5-34">
          <mxGeometry width="50" height="50" relative="1" as="geometry">
            <mxPoint x="310" y="650" as="sourcePoint" />
            <mxPoint x="360" y="600" as="targetPoint" />
          </mxGeometry>
        </mxCell>
        <mxCell id="R-bw1zkTwo7xKDVd_Wr5-37" value="FullName" style="ellipse;whiteSpace=wrap;html=1;" vertex="1" parent="1">
          <mxGeometry x="-60" y="700" width="119" height="61" as="geometry" />
        </mxCell>
        <mxCell id="R-bw1zkTwo7xKDVd_Wr5-38" value="" style="endArrow=none;html=1;rounded=0;exitX=1;exitY=0.5;exitDx=0;exitDy=0;entryX=0;entryY=0.75;entryDx=0;entryDy=0;" edge="1" parent="1" source="R-bw1zkTwo7xKDVd_Wr5-37" target="R-bw1zkTwo7xKDVd_Wr5-34">
          <mxGeometry width="50" height="50" relative="1" as="geometry">
            <mxPoint x="310" y="650" as="sourcePoint" />
            <mxPoint x="360" y="600" as="targetPoint" />
          </mxGeometry>
        </mxCell>
        <mxCell id="R-bw1zkTwo7xKDVd_Wr5-39" value="Gender" style="ellipse;whiteSpace=wrap;html=1;" vertex="1" parent="1">
          <mxGeometry x="-60" y="780" width="119" height="61" as="geometry" />
        </mxCell>
        <mxCell id="R-bw1zkTwo7xKDVd_Wr5-40" value="" style="endArrow=none;html=1;rounded=0;exitX=1;exitY=0.5;exitDx=0;exitDy=0;entryX=0.084;entryY=0.952;entryDx=0;entryDy=0;entryPerimeter=0;" edge="1" parent="1" source="R-bw1zkTwo7xKDVd_Wr5-39" target="R-bw1zkTwo7xKDVd_Wr5-34">
          <mxGeometry width="50" height="50" relative="1" as="geometry">
            <mxPoint x="310" y="650" as="sourcePoint" />
            <mxPoint x="360" y="600" as="targetPoint" />
          </mxGeometry>
        </mxCell>
        <mxCell id="R-bw1zkTwo7xKDVd_Wr5-42" value="Email" style="ellipse;whiteSpace=wrap;html=1;" vertex="1" parent="1">
          <mxGeometry x="110" y="790" width="119" height="61" as="geometry" />
        </mxCell>
        <mxCell id="R-bw1zkTwo7xKDVd_Wr5-43" value="BirthDate" style="ellipse;whiteSpace=wrap;html=1;" vertex="1" parent="1">
          <mxGeometry x="250" y="790" width="119" height="61" as="geometry" />
        </mxCell>
        <mxCell id="R-bw1zkTwo7xKDVd_Wr5-44" value="" style="endArrow=none;html=1;rounded=0;exitX=0.5;exitY=0;exitDx=0;exitDy=0;entryX=0.5;entryY=1;entryDx=0;entryDy=0;" edge="1" parent="1" source="R-bw1zkTwo7xKDVd_Wr5-42" target="R-bw1zkTwo7xKDVd_Wr5-34">
          <mxGeometry width="50" height="50" relative="1" as="geometry">
            <mxPoint x="310" y="650" as="sourcePoint" />
            <mxPoint x="360" y="600" as="targetPoint" />
          </mxGeometry>
        </mxCell>
        <mxCell id="R-bw1zkTwo7xKDVd_Wr5-45" value="" style="endArrow=none;html=1;rounded=0;exitX=0.75;exitY=1;exitDx=0;exitDy=0;entryX=0.427;entryY=0.039;entryDx=0;entryDy=0;entryPerimeter=0;" edge="1" parent="1" source="R-bw1zkTwo7xKDVd_Wr5-34" target="R-bw1zkTwo7xKDVd_Wr5-43">
          <mxGeometry width="50" height="50" relative="1" as="geometry">
            <mxPoint x="310" y="650" as="sourcePoint" />
            <mxPoint x="360" y="600" as="targetPoint" />
          </mxGeometry>
        </mxCell>
        <mxCell id="R-bw1zkTwo7xKDVd_Wr5-46" value="PhoneNumber&amp;nbsp;" style="ellipse;whiteSpace=wrap;html=1;" vertex="1" parent="1">
          <mxGeometry x="240" y="600" width="119" height="61" as="geometry" />
        </mxCell>
        <mxCell id="R-bw1zkTwo7xKDVd_Wr5-47" value="" style="endArrow=none;html=1;rounded=0;exitX=1;exitY=0.25;exitDx=0;exitDy=0;entryX=0.5;entryY=1;entryDx=0;entryDy=0;" edge="1" parent="1" source="R-bw1zkTwo7xKDVd_Wr5-34" target="R-bw1zkTwo7xKDVd_Wr5-46">
          <mxGeometry width="50" height="50" relative="1" as="geometry">
            <mxPoint x="310" y="650" as="sourcePoint" />
            <mxPoint x="360" y="600" as="targetPoint" />
          </mxGeometry>
        </mxCell>
        <mxCell id="R-bw1zkTwo7xKDVd_Wr5-48" value="" style="endArrow=none;html=1;rounded=0;exitX=1;exitY=0.5;exitDx=0;exitDy=0;" edge="1" parent="1" source="R-bw1zkTwo7xKDVd_Wr5-34">
          <mxGeometry width="50" height="50" relative="1" as="geometry">
            <mxPoint x="310" y="650" as="sourcePoint" />
            <mxPoint x="420" y="711" as="targetPoint" />
          </mxGeometry>
        </mxCell>
        <mxCell id="R-bw1zkTwo7xKDVd_Wr5-49" value="reserve/return&lt;div&gt;date&lt;/div&gt;" style="rhombus;whiteSpace=wrap;html=1;" vertex="1" parent="1">
          <mxGeometry x="420" y="671" width="110" height="80" as="geometry" />
        </mxCell>
        <mxCell id="R-bw1zkTwo7xKDVd_Wr5-50" value="" style="endArrow=none;html=1;rounded=0;" edge="1" parent="1">
          <mxGeometry width="50" height="50" relative="1" as="geometry">
            <mxPoint x="475" y="670" as="sourcePoint" />
            <mxPoint x="475" y="600" as="targetPoint" />
          </mxGeometry>
        </mxCell>
        <mxCell id="R-bw1zkTwo7xKDVd_Wr5-51" value="&lt;u&gt;ReserveDate&lt;/u&gt;" style="ellipse;whiteSpace=wrap;html=1;" vertex="1" parent="1">
          <mxGeometry x="415.5" y="570" width="119" height="61" as="geometry" />
        </mxCell>
        <mxCell id="R-bw1zkTwo7xKDVd_Wr5-52" value="" style="endArrow=none;html=1;rounded=0;entryX=0.5;entryY=1;entryDx=0;entryDy=0;" edge="1" parent="1" target="R-bw1zkTwo7xKDVd_Wr5-49">
          <mxGeometry width="50" height="50" relative="1" as="geometry">
            <mxPoint x="475" y="810" as="sourcePoint" />
            <mxPoint x="500" y="740" as="targetPoint" />
          </mxGeometry>
        </mxCell>
        <mxCell id="R-bw1zkTwo7xKDVd_Wr5-53" value="ReturnDate" style="ellipse;whiteSpace=wrap;html=1;" vertex="1" parent="1">
          <mxGeometry x="415.5" y="810" width="119" height="61" as="geometry" />
        </mxCell>
        <mxCell id="R-bw1zkTwo7xKDVd_Wr5-56" value="" style="endArrow=none;html=1;rounded=0;exitX=1;exitY=1;exitDx=0;exitDy=0;" edge="1" parent="1" source="R-bw1zkTwo7xKDVd_Wr5-49">
          <mxGeometry width="50" height="50" relative="1" as="geometry">
            <mxPoint x="450" y="650" as="sourcePoint" />
            <mxPoint x="610" y="830" as="targetPoint" />
          </mxGeometry>
        </mxCell>
        <mxCell id="R-bw1zkTwo7xKDVd_Wr5-57" value="DueDate" style="ellipse;whiteSpace=wrap;html=1;" vertex="1" parent="1">
          <mxGeometry x="550" y="820" width="119" height="61" as="geometry" />
        </mxCell>
        <mxCell id="R-bw1zkTwo7xKDVd_Wr5-58" value="" style="endArrow=none;html=1;rounded=0;exitX=1;exitY=0.5;exitDx=0;exitDy=0;" edge="1" parent="1" source="R-bw1zkTwo7xKDVd_Wr5-49">
          <mxGeometry width="50" height="50" relative="1" as="geometry">
            <mxPoint x="560" y="650" as="sourcePoint" />
            <mxPoint x="750" y="711" as="targetPoint" />
          </mxGeometry>
        </mxCell>
        <mxCell id="R-bw1zkTwo7xKDVd_Wr5-59" value="Books" style="rounded=0;whiteSpace=wrap;html=1;" vertex="1" parent="1">
          <mxGeometry x="750" y="690" width="110" height="42" as="geometry" />
        </mxCell>
        <mxCell id="R-bw1zkTwo7xKDVd_Wr5-61" value="&lt;u&gt;BookID&lt;/u&gt;" style="ellipse;whiteSpace=wrap;html=1;" vertex="1" parent="1">
          <mxGeometry x="720" y="820" width="119" height="61" as="geometry" />
        </mxCell>
        <mxCell id="R-bw1zkTwo7xKDVd_Wr5-62" value="" style="endArrow=none;html=1;rounded=0;exitX=0.336;exitY=0;exitDx=0;exitDy=0;exitPerimeter=0;entryX=0.25;entryY=1;entryDx=0;entryDy=0;" edge="1" parent="1" source="R-bw1zkTwo7xKDVd_Wr5-61" target="R-bw1zkTwo7xKDVd_Wr5-59">
          <mxGeometry width="50" height="50" relative="1" as="geometry">
            <mxPoint x="560" y="650" as="sourcePoint" />
            <mxPoint x="610" y="600" as="targetPoint" />
          </mxGeometry>
        </mxCell>
        <mxCell id="R-bw1zkTwo7xKDVd_Wr5-63" value="Title&amp;nbsp;" style="ellipse;whiteSpace=wrap;html=1;" vertex="1" parent="1">
          <mxGeometry x="850" y="820" width="119" height="61" as="geometry" />
        </mxCell>
        <mxCell id="R-bw1zkTwo7xKDVd_Wr5-64" value="" style="endArrow=none;html=1;rounded=0;entryX=0.272;entryY=0.059;entryDx=0;entryDy=0;exitX=0.5;exitY=1;exitDx=0;exitDy=0;entryPerimeter=0;" edge="1" parent="1" source="R-bw1zkTwo7xKDVd_Wr5-59" target="R-bw1zkTwo7xKDVd_Wr5-63">
          <mxGeometry width="50" height="50" relative="1" as="geometry">
            <mxPoint x="560" y="790" as="sourcePoint" />
            <mxPoint x="610" y="740" as="targetPoint" />
          </mxGeometry>
        </mxCell>
        <mxCell id="R-bw1zkTwo7xKDVd_Wr5-65" value="Author" style="ellipse;whiteSpace=wrap;html=1;" vertex="1" parent="1">
          <mxGeometry x="960" y="770" width="119" height="61" as="geometry" />
        </mxCell>
        <mxCell id="R-bw1zkTwo7xKDVd_Wr5-66" value="" style="endArrow=none;html=1;rounded=0;entryX=0;entryY=0.5;entryDx=0;entryDy=0;exitX=0.75;exitY=1;exitDx=0;exitDy=0;" edge="1" parent="1" source="R-bw1zkTwo7xKDVd_Wr5-59" target="R-bw1zkTwo7xKDVd_Wr5-65">
          <mxGeometry width="50" height="50" relative="1" as="geometry">
            <mxPoint x="830" y="790" as="sourcePoint" />
            <mxPoint x="880" y="740" as="targetPoint" />
          </mxGeometry>
        </mxCell>
        <mxCell id="R-bw1zkTwo7xKDVd_Wr5-67" value="&amp;nbsp;Genre&amp;nbsp;" style="ellipse;whiteSpace=wrap;html=1;" vertex="1" parent="1">
          <mxGeometry x="969" y="700" width="119" height="61" as="geometry" />
        </mxCell>
        <mxCell id="R-bw1zkTwo7xKDVd_Wr5-68" value="" style="endArrow=none;html=1;rounded=0;entryX=0;entryY=0.5;entryDx=0;entryDy=0;exitX=1;exitY=0.75;exitDx=0;exitDy=0;" edge="1" parent="1" source="R-bw1zkTwo7xKDVd_Wr5-59" target="R-bw1zkTwo7xKDVd_Wr5-67">
          <mxGeometry width="50" height="50" relative="1" as="geometry">
            <mxPoint x="830" y="790" as="sourcePoint" />
            <mxPoint x="880" y="740" as="targetPoint" />
          </mxGeometry>
        </mxCell>
        <mxCell id="R-bw1zkTwo7xKDVd_Wr5-69" value="PublishedYear" style="ellipse;whiteSpace=wrap;html=1;" vertex="1" parent="1">
          <mxGeometry x="979" y="620" width="119" height="61" as="geometry" />
        </mxCell>
        <mxCell id="R-bw1zkTwo7xKDVd_Wr5-70" value="Quantity" style="ellipse;whiteSpace=wrap;html=1;" vertex="1" parent="1">
          <mxGeometry x="920" y="550" width="119" height="61" as="geometry" />
        </mxCell>
        <mxCell id="R-bw1zkTwo7xKDVd_Wr5-71" value="Language" style="ellipse;whiteSpace=wrap;html=1;" vertex="1" parent="1">
          <mxGeometry x="790" y="522" width="119" height="61" as="geometry" />
        </mxCell>
        <mxCell id="R-bw1zkTwo7xKDVd_Wr5-72" value="Location" style="ellipse;whiteSpace=wrap;html=1;" vertex="1" parent="1">
          <mxGeometry x="650" y="522" width="119" height="61" as="geometry" />
        </mxCell>
        <mxCell id="R-bw1zkTwo7xKDVd_Wr5-73" value="" style="endArrow=none;html=1;rounded=0;exitX=1;exitY=0.25;exitDx=0;exitDy=0;" edge="1" parent="1" source="R-bw1zkTwo7xKDVd_Wr5-59" target="R-bw1zkTwo7xKDVd_Wr5-69">
          <mxGeometry width="50" height="50" relative="1" as="geometry">
            <mxPoint x="610" y="650" as="sourcePoint" />
            <mxPoint x="660" y="600" as="targetPoint" />
          </mxGeometry>
        </mxCell>
        <mxCell id="R-bw1zkTwo7xKDVd_Wr5-74" value="" style="endArrow=none;html=1;rounded=0;exitX=1;exitY=0;exitDx=0;exitDy=0;entryX=0;entryY=1;entryDx=0;entryDy=0;" edge="1" parent="1" source="R-bw1zkTwo7xKDVd_Wr5-59" target="R-bw1zkTwo7xKDVd_Wr5-70">
          <mxGeometry width="50" height="50" relative="1" as="geometry">
            <mxPoint x="610" y="650" as="sourcePoint" />
            <mxPoint x="660" y="600" as="targetPoint" />
          </mxGeometry>
        </mxCell>
        <mxCell id="R-bw1zkTwo7xKDVd_Wr5-75" value="" style="endArrow=none;html=1;rounded=0;entryX=0.588;entryY=0.984;entryDx=0;entryDy=0;entryPerimeter=0;exitX=0.75;exitY=0;exitDx=0;exitDy=0;" edge="1" parent="1" source="R-bw1zkTwo7xKDVd_Wr5-59" target="R-bw1zkTwo7xKDVd_Wr5-71">
          <mxGeometry width="50" height="50" relative="1" as="geometry">
            <mxPoint x="610" y="650" as="sourcePoint" />
            <mxPoint x="660" y="600" as="targetPoint" />
          </mxGeometry>
        </mxCell>
        <mxCell id="R-bw1zkTwo7xKDVd_Wr5-76" value="" style="endArrow=none;html=1;rounded=0;entryX=0.5;entryY=1;entryDx=0;entryDy=0;exitX=0.5;exitY=0;exitDx=0;exitDy=0;" edge="1" parent="1" source="R-bw1zkTwo7xKDVd_Wr5-59" target="R-bw1zkTwo7xKDVd_Wr5-72">
          <mxGeometry width="50" height="50" relative="1" as="geometry">
            <mxPoint x="610" y="650" as="sourcePoint" />
            <mxPoint x="660" y="600" as="targetPoint" />
          </mxGeometry>
        </mxCell>
        <mxCell id="R-bw1zkTwo7xKDVd_Wr5-77" value="" style="endArrow=none;html=1;rounded=0;entryX=0.12;entryY=0.403;entryDx=0;entryDy=0;entryPerimeter=0;" edge="1" parent="1" target="R-bw1zkTwo7xKDVd_Wr5-78">
          <mxGeometry width="50" height="50" relative="1" as="geometry">
            <mxPoint x="240" y="351" as="sourcePoint" />
            <mxPoint x="500" y="480" as="targetPoint" />
          </mxGeometry>
        </mxCell>
        <mxCell id="R-bw1zkTwo7xKDVd_Wr5-78" value="maintain" style="rhombus;whiteSpace=wrap;html=1;" vertex="1" parent="1">
          <mxGeometry x="460" y="480" width="80" height="80" as="geometry" />
        </mxCell>
        <mxCell id="R-bw1zkTwo7xKDVd_Wr5-79" value="" style="endArrow=none;html=1;rounded=0;exitX=1;exitY=1;exitDx=0;exitDy=0;entryX=0;entryY=0.25;entryDx=0;entryDy=0;" edge="1" parent="1" source="R-bw1zkTwo7xKDVd_Wr5-78" target="R-bw1zkTwo7xKDVd_Wr5-59">
          <mxGeometry width="50" height="50" relative="1" as="geometry">
            <mxPoint x="590" y="520" as="sourcePoint" />
            <mxPoint x="640" y="470" as="targetPoint" />
          </mxGeometry>
        </mxCell>
        <mxCell id="R-bw1zkTwo7xKDVd_Wr5-80" value="" style="endArrow=none;html=1;rounded=0;" edge="1" parent="1" target="R-bw1zkTwo7xKDVd_Wr5-81">
          <mxGeometry width="50" height="50" relative="1" as="geometry">
            <mxPoint x="240" y="350" as="sourcePoint" />
            <mxPoint x="570" y="350" as="targetPoint" />
          </mxGeometry>
        </mxCell>
        <mxCell id="R-bw1zkTwo7xKDVd_Wr5-81" value="Login" style="rhombus;whiteSpace=wrap;html=1;" vertex="1" parent="1">
          <mxGeometry x="530" y="311" width="80" height="80" as="geometry" />
        </mxCell>
        <mxCell id="R-bw1zkTwo7xKDVd_Wr5-82" value="" style="endArrow=none;html=1;rounded=0;exitX=1;exitY=0.5;exitDx=0;exitDy=0;" edge="1" parent="1" source="R-bw1zkTwo7xKDVd_Wr5-81">
          <mxGeometry width="50" height="50" relative="1" as="geometry">
            <mxPoint x="600" y="500" as="sourcePoint" />
            <mxPoint x="820" y="351" as="targetPoint" />
          </mxGeometry>
        </mxCell>
        <mxCell id="R-bw1zkTwo7xKDVd_Wr5-83" value="Authentication" style="rounded=0;whiteSpace=wrap;html=1;" vertex="1" parent="1">
          <mxGeometry x="790" y="330" width="110" height="42" as="geometry" />
        </mxCell>
        <mxCell id="R-bw1zkTwo7xKDVd_Wr5-84" value="" style="endArrow=none;html=1;rounded=0;entryX=0.25;entryY=0;entryDx=0;entryDy=0;" edge="1" parent="1" target="R-bw1zkTwo7xKDVd_Wr5-83">
          <mxGeometry width="50" height="50" relative="1" as="geometry">
            <mxPoint x="740" y="230" as="sourcePoint" />
            <mxPoint x="650" y="450" as="targetPoint" />
          </mxGeometry>
        </mxCell>
        <mxCell id="R-bw1zkTwo7xKDVd_Wr5-85" value="&lt;u&gt;LoginID&lt;/u&gt;" style="ellipse;whiteSpace=wrap;html=1;" vertex="1" parent="1">
          <mxGeometry x="671" y="180" width="119" height="61" as="geometry" />
        </mxCell>
        <mxCell id="R-bw1zkTwo7xKDVd_Wr5-86" value="PasswordHash" style="ellipse;whiteSpace=wrap;html=1;" vertex="1" parent="1">
          <mxGeometry x="880" y="171.5" width="119" height="61" as="geometry" />
        </mxCell>
        <mxCell id="R-bw1zkTwo7xKDVd_Wr5-87" value="" style="endArrow=none;html=1;rounded=0;exitX=0.75;exitY=0;exitDx=0;exitDy=0;" edge="1" parent="1" source="R-bw1zkTwo7xKDVd_Wr5-83" target="R-bw1zkTwo7xKDVd_Wr5-86">
          <mxGeometry width="50" height="50" relative="1" as="geometry">
            <mxPoint x="600" y="500" as="sourcePoint" />
            <mxPoint x="650" y="450" as="targetPoint" />
          </mxGeometry>
        </mxCell>
        <mxCell id="R-bw1zkTwo7xKDVd_Wr5-88" value="N" style="text;html=1;align=center;verticalAlign=middle;resizable=0;points=[];autosize=1;strokeColor=none;fillColor=none;" vertex="1" parent="1">
          <mxGeometry x="220" y="171.5" width="30" height="30" as="geometry" />
        </mxCell>
        <mxCell id="R-bw1zkTwo7xKDVd_Wr5-89" value="1" style="text;html=1;align=center;verticalAlign=middle;resizable=0;points=[];autosize=1;strokeColor=none;fillColor=none;" vertex="1" parent="1">
          <mxGeometry x="220" y="268" width="30" height="30" as="geometry" />
        </mxCell>
        <mxCell id="R-bw1zkTwo7xKDVd_Wr5-90" value="M" style="text;html=1;align=center;verticalAlign=middle;resizable=0;points=[];autosize=1;strokeColor=none;fillColor=none;" vertex="1" parent="1">
          <mxGeometry x="195" y="418" width="30" height="30" as="geometry" />
        </mxCell>
        <mxCell id="R-bw1zkTwo7xKDVd_Wr5-91" value="N" style="text;html=1;align=center;verticalAlign=middle;resizable=0;points=[];autosize=1;strokeColor=none;fillColor=none;" vertex="1" parent="1">
          <mxGeometry x="195" y="608" width="30" height="30" as="geometry" />
        </mxCell>
        <mxCell id="R-bw1zkTwo7xKDVd_Wr5-92" value="1" style="text;html=1;align=center;verticalAlign=middle;resizable=0;points=[];autosize=1;strokeColor=none;fillColor=none;" vertex="1" parent="1">
          <mxGeometry x="325" y="668" width="30" height="30" as="geometry" />
        </mxCell>
        <mxCell id="R-bw1zkTwo7xKDVd_Wr5-93" value="N" style="text;html=1;align=center;verticalAlign=middle;resizable=0;points=[];autosize=1;strokeColor=none;fillColor=none;" vertex="1" parent="1">
          <mxGeometry x="615" y="668" width="30" height="30" as="geometry" />
        </mxCell>
        <mxCell id="R-bw1zkTwo7xKDVd_Wr5-94" value="1" style="text;html=1;align=center;verticalAlign=middle;resizable=0;points=[];autosize=1;strokeColor=none;fillColor=none;" vertex="1" parent="1">
          <mxGeometry x="350.5" y="400" width="30" height="30" as="geometry" />
        </mxCell>
        <mxCell id="R-bw1zkTwo7xKDVd_Wr5-95" value="N" style="text;html=1;align=center;verticalAlign=middle;resizable=0;points=[];autosize=1;strokeColor=none;fillColor=none;" vertex="1" parent="1">
          <mxGeometry x="615" y="578" width="30" height="30" as="geometry" />
        </mxCell>
        <mxCell id="R-bw1zkTwo7xKDVd_Wr5-96" value="N" style="text;html=1;align=center;verticalAlign=middle;resizable=0;points=[];autosize=1;strokeColor=none;fillColor=none;" vertex="1" parent="1">
          <mxGeometry x="375" y="308" width="30" height="30" as="geometry" />
        </mxCell>
        <mxCell id="R-bw1zkTwo7xKDVd_Wr5-97" value="1" style="text;html=1;align=center;verticalAlign=middle;resizable=0;points=[];autosize=1;strokeColor=none;fillColor=none;" vertex="1" parent="1">
          <mxGeometry x="705" y="308" width="30" height="30" as="geometry" />
        </mxCell>
      </root>
    </mxGraphModel>
  </diagram>
</mxfile>
